<mxfile host="app.diagrams.net" agent="Mozilla/5.0 (Windows NT 10.0; Win64; x64) AppleWebKit/537.36 (KHTML, like Gecko) Chrome/131.0.0.0 Safari/537.36" version="24.8.6">
  <diagram name="Сторінка-1" id="fj5bXdZ4iZSPT9sEtGN8">
    <mxGraphModel dx="1432" dy="820" grid="1" gridSize="10" guides="1" tooltips="1" connect="1" arrows="1" fold="1" page="1" pageScale="1" pageWidth="827" pageHeight="1169" math="0" shadow="0">
      <root>
        <mxCell id="0" />
        <mxCell id="1" parent="0" />
        <mxCell id="XvNR7BF3wWASIqEPtLLH-24" style="edgeStyle=orthogonalEdgeStyle;rounded=0;orthogonalLoop=1;jettySize=auto;html=1;" edge="1" parent="1" source="XvNR7BF3wWASIqEPtLLH-1" target="XvNR7BF3wWASIqEPtLLH-2">
          <mxGeometry relative="1" as="geometry" />
        </mxCell>
        <mxCell id="XvNR7BF3wWASIqEPtLLH-1" value="start" style="ellipse;whiteSpace=wrap;html=1;" vertex="1" parent="1">
          <mxGeometry x="330" y="30" width="120" height="80" as="geometry" />
        </mxCell>
        <mxCell id="XvNR7BF3wWASIqEPtLLH-25" style="edgeStyle=orthogonalEdgeStyle;rounded=0;orthogonalLoop=1;jettySize=auto;html=1;" edge="1" parent="1" source="XvNR7BF3wWASIqEPtLLH-2" target="XvNR7BF3wWASIqEPtLLH-3">
          <mxGeometry relative="1" as="geometry" />
        </mxCell>
        <mxCell id="XvNR7BF3wWASIqEPtLLH-2" value="&amp;nbsp;int n;" style="rounded=0;whiteSpace=wrap;html=1;" vertex="1" parent="1">
          <mxGeometry x="330" y="160" width="120" height="60" as="geometry" />
        </mxCell>
        <mxCell id="XvNR7BF3wWASIqEPtLLH-26" style="edgeStyle=orthogonalEdgeStyle;rounded=0;orthogonalLoop=1;jettySize=auto;html=1;entryX=0.5;entryY=0;entryDx=0;entryDy=0;" edge="1" parent="1" source="XvNR7BF3wWASIqEPtLLH-3" target="XvNR7BF3wWASIqEPtLLH-4">
          <mxGeometry relative="1" as="geometry" />
        </mxCell>
        <mxCell id="XvNR7BF3wWASIqEPtLLH-3" value="string x;" style="rounded=0;whiteSpace=wrap;html=1;" vertex="1" parent="1">
          <mxGeometry x="330" y="270" width="120" height="60" as="geometry" />
        </mxCell>
        <mxCell id="XvNR7BF3wWASIqEPtLLH-27" style="edgeStyle=orthogonalEdgeStyle;rounded=0;orthogonalLoop=1;jettySize=auto;html=1;" edge="1" parent="1" source="XvNR7BF3wWASIqEPtLLH-4" target="XvNR7BF3wWASIqEPtLLH-5">
          <mxGeometry relative="1" as="geometry" />
        </mxCell>
        <mxCell id="XvNR7BF3wWASIqEPtLLH-4" value="&amp;nbsp; cin &amp;gt;&amp;gt; n &amp;gt;&amp;gt; x;" style="shape=parallelogram;perimeter=parallelogramPerimeter;whiteSpace=wrap;html=1;fixedSize=1;" vertex="1" parent="1">
          <mxGeometry x="330" y="360" width="120" height="60" as="geometry" />
        </mxCell>
        <mxCell id="XvNR7BF3wWASIqEPtLLH-28" style="edgeStyle=orthogonalEdgeStyle;rounded=0;orthogonalLoop=1;jettySize=auto;html=1;" edge="1" parent="1" source="XvNR7BF3wWASIqEPtLLH-5" target="XvNR7BF3wWASIqEPtLLH-14">
          <mxGeometry relative="1" as="geometry" />
        </mxCell>
        <mxCell id="XvNR7BF3wWASIqEPtLLH-5" value="unordered_set&amp;lt;string&amp;gt; pinPairs;" style="rounded=0;whiteSpace=wrap;html=1;" vertex="1" parent="1">
          <mxGeometry x="330" y="480" width="120" height="60" as="geometry" />
        </mxCell>
        <mxCell id="XvNR7BF3wWASIqEPtLLH-21" style="edgeStyle=orthogonalEdgeStyle;rounded=0;orthogonalLoop=1;jettySize=auto;html=1;entryX=0.5;entryY=0;entryDx=0;entryDy=0;" edge="1" parent="1" source="XvNR7BF3wWASIqEPtLLH-6" target="XvNR7BF3wWASIqEPtLLH-7">
          <mxGeometry relative="1" as="geometry" />
        </mxCell>
        <mxCell id="XvNR7BF3wWASIqEPtLLH-6" value="for(2)" style="ellipse;whiteSpace=wrap;html=1;" vertex="1" parent="1">
          <mxGeometry x="330" y="790" width="120" height="80" as="geometry" />
        </mxCell>
        <mxCell id="XvNR7BF3wWASIqEPtLLH-9" style="edgeStyle=orthogonalEdgeStyle;rounded=0;orthogonalLoop=1;jettySize=auto;html=1;" edge="1" parent="1" source="XvNR7BF3wWASIqEPtLLH-7" target="XvNR7BF3wWASIqEPtLLH-10">
          <mxGeometry relative="1" as="geometry">
            <mxPoint x="390" y="1050" as="targetPoint" />
          </mxGeometry>
        </mxCell>
        <mxCell id="XvNR7BF3wWASIqEPtLLH-17" style="edgeStyle=orthogonalEdgeStyle;rounded=0;orthogonalLoop=1;jettySize=auto;html=1;entryX=1;entryY=0.5;entryDx=0;entryDy=0;" edge="1" parent="1" source="XvNR7BF3wWASIqEPtLLH-7" target="XvNR7BF3wWASIqEPtLLH-16">
          <mxGeometry relative="1" as="geometry">
            <mxPoint x="560" y="1250" as="targetPoint" />
            <Array as="points">
              <mxPoint x="510" y="940" />
              <mxPoint x="510" y="941" />
              <mxPoint x="610" y="941" />
              <mxPoint x="610" y="1250" />
            </Array>
          </mxGeometry>
        </mxCell>
        <mxCell id="XvNR7BF3wWASIqEPtLLH-7" value="int j = i + n; j + n &amp;lt;= x.size(); j++&lt;span style=&quot;white-space: pre;&quot;&gt;&#x9;&lt;/span&gt;" style="rhombus;whiteSpace=wrap;html=1;" vertex="1" parent="1">
          <mxGeometry x="350" y="900" width="80" height="80" as="geometry" />
        </mxCell>
        <mxCell id="XvNR7BF3wWASIqEPtLLH-11" style="edgeStyle=orthogonalEdgeStyle;rounded=0;orthogonalLoop=1;jettySize=auto;html=1;" edge="1" parent="1" source="XvNR7BF3wWASIqEPtLLH-10" target="XvNR7BF3wWASIqEPtLLH-12">
          <mxGeometry relative="1" as="geometry">
            <mxPoint x="390" y="1150" as="targetPoint" />
          </mxGeometry>
        </mxCell>
        <mxCell id="XvNR7BF3wWASIqEPtLLH-10" value="if (pin1 != pin2)" style="rhombus;whiteSpace=wrap;html=1;" vertex="1" parent="1">
          <mxGeometry x="350" y="1010" width="80" height="80" as="geometry" />
        </mxCell>
        <mxCell id="XvNR7BF3wWASIqEPtLLH-13" style="edgeStyle=orthogonalEdgeStyle;rounded=0;orthogonalLoop=1;jettySize=auto;html=1;entryX=0;entryY=0.5;entryDx=0;entryDy=0;" edge="1" parent="1" source="XvNR7BF3wWASIqEPtLLH-12" target="XvNR7BF3wWASIqEPtLLH-7">
          <mxGeometry relative="1" as="geometry">
            <mxPoint x="270" y="940" as="targetPoint" />
            <Array as="points">
              <mxPoint x="271" y="1150" />
              <mxPoint x="271" y="940" />
            </Array>
          </mxGeometry>
        </mxCell>
        <mxCell id="XvNR7BF3wWASIqEPtLLH-12" value="&amp;nbsp;pinPairs.insert(min(pin1, pin2) + max(pin1, pin2));" style="rounded=0;whiteSpace=wrap;html=1;" vertex="1" parent="1">
          <mxGeometry x="330" y="1120" width="120" height="60" as="geometry" />
        </mxCell>
        <mxCell id="XvNR7BF3wWASIqEPtLLH-23" style="edgeStyle=orthogonalEdgeStyle;rounded=0;orthogonalLoop=1;jettySize=auto;html=1;" edge="1" parent="1" source="XvNR7BF3wWASIqEPtLLH-14" target="XvNR7BF3wWASIqEPtLLH-15">
          <mxGeometry relative="1" as="geometry" />
        </mxCell>
        <mxCell id="XvNR7BF3wWASIqEPtLLH-14" value="for(1)" style="ellipse;whiteSpace=wrap;html=1;" vertex="1" parent="1">
          <mxGeometry x="330" y="560" width="120" height="80" as="geometry" />
        </mxCell>
        <mxCell id="XvNR7BF3wWASIqEPtLLH-20" style="edgeStyle=orthogonalEdgeStyle;rounded=0;orthogonalLoop=1;jettySize=auto;html=1;entryX=1;entryY=0.5;entryDx=0;entryDy=0;" edge="1" parent="1" source="XvNR7BF3wWASIqEPtLLH-15" target="XvNR7BF3wWASIqEPtLLH-19">
          <mxGeometry relative="1" as="geometry">
            <mxPoint x="680" y="1390" as="targetPoint" />
            <Array as="points">
              <mxPoint x="610" y="700" />
              <mxPoint x="610" y="701" />
              <mxPoint x="760" y="701" />
              <mxPoint x="760" y="1390" />
              <mxPoint x="450" y="1390" />
            </Array>
          </mxGeometry>
        </mxCell>
        <mxCell id="XvNR7BF3wWASIqEPtLLH-22" style="edgeStyle=orthogonalEdgeStyle;rounded=0;orthogonalLoop=1;jettySize=auto;html=1;" edge="1" parent="1" source="XvNR7BF3wWASIqEPtLLH-15" target="XvNR7BF3wWASIqEPtLLH-6">
          <mxGeometry relative="1" as="geometry" />
        </mxCell>
        <mxCell id="XvNR7BF3wWASIqEPtLLH-15" value="int i = 0; i + n &amp;lt;= x.size(); i++" style="rhombus;whiteSpace=wrap;html=1;" vertex="1" parent="1">
          <mxGeometry x="350" y="660" width="80" height="80" as="geometry" />
        </mxCell>
        <mxCell id="XvNR7BF3wWASIqEPtLLH-18" style="edgeStyle=orthogonalEdgeStyle;rounded=0;orthogonalLoop=1;jettySize=auto;html=1;entryX=0;entryY=0.5;entryDx=0;entryDy=0;" edge="1" parent="1" source="XvNR7BF3wWASIqEPtLLH-16" target="XvNR7BF3wWASIqEPtLLH-15">
          <mxGeometry relative="1" as="geometry">
            <mxPoint x="180" y="690" as="targetPoint" />
            <Array as="points">
              <mxPoint x="220" y="1250" />
              <mxPoint x="220" y="1251" />
              <mxPoint x="110" y="1251" />
              <mxPoint x="110" y="690" />
              <mxPoint x="350" y="690" />
            </Array>
          </mxGeometry>
        </mxCell>
        <mxCell id="XvNR7BF3wWASIqEPtLLH-16" value="end for(2)" style="ellipse;whiteSpace=wrap;html=1;" vertex="1" parent="1">
          <mxGeometry x="330" y="1210" width="120" height="80" as="geometry" />
        </mxCell>
        <mxCell id="XvNR7BF3wWASIqEPtLLH-30" style="edgeStyle=orthogonalEdgeStyle;rounded=0;orthogonalLoop=1;jettySize=auto;html=1;entryX=0.5;entryY=0;entryDx=0;entryDy=0;" edge="1" parent="1" source="XvNR7BF3wWASIqEPtLLH-19" target="XvNR7BF3wWASIqEPtLLH-29">
          <mxGeometry relative="1" as="geometry" />
        </mxCell>
        <mxCell id="XvNR7BF3wWASIqEPtLLH-19" value="end for(1)" style="ellipse;whiteSpace=wrap;html=1;" vertex="1" parent="1">
          <mxGeometry x="330" y="1340" width="120" height="80" as="geometry" />
        </mxCell>
        <mxCell id="XvNR7BF3wWASIqEPtLLH-32" value="" style="edgeStyle=orthogonalEdgeStyle;rounded=0;orthogonalLoop=1;jettySize=auto;html=1;" edge="1" parent="1" source="XvNR7BF3wWASIqEPtLLH-29" target="XvNR7BF3wWASIqEPtLLH-31">
          <mxGeometry relative="1" as="geometry" />
        </mxCell>
        <mxCell id="XvNR7BF3wWASIqEPtLLH-29" value="cout" style="shape=parallelogram;perimeter=parallelogramPerimeter;whiteSpace=wrap;html=1;fixedSize=1;" vertex="1" parent="1">
          <mxGeometry x="330" y="1500" width="120" height="60" as="geometry" />
        </mxCell>
        <mxCell id="XvNR7BF3wWASIqEPtLLH-31" value="end" style="ellipse;whiteSpace=wrap;html=1;" vertex="1" parent="1">
          <mxGeometry x="330" y="1620" width="120" height="80" as="geometry" />
        </mxCell>
      </root>
    </mxGraphModel>
  </diagram>
</mxfile>
